<?xml version="1.0" encoding="UTF-8" standalone="no"?>
<!DOCTYPE svg PUBLIC "-//W3C//DTD SVG 1.1//EN"
 "http://www.w3.org/Graphics/SVG/1.1/DTD/svg11.dtd">
<!-- Generated by graphviz version 11.0.0 (20240428.1522)
 -->
<!-- Title: GDALG Workflow Pages: 1 -->
<svg width="945pt" height="212pt"
 viewBox="0.00 0.00 945.00 212.00" xmlns="http://www.w3.org/2000/svg" xmlns:xlink="http://www.w3.org/1999/xlink">
<g id="graph0" class="graph" transform="scale(1 1) rotate(0) translate(36 176)">
<title>GDALG Workflow</title>
<!-- 0 -->
<g id="node1" class="node">
<title>0</title>
<g id="a_node1"><a xlink:href="https://gdal.org/en/latest/programs/gdal_raster_read.html" xlink:title="https://gdal.org/en/latest/programs/gdal_raster_read.html" target="_blank">
<polygon fill="#33a333" stroke="none" points="0,-109.5 0,-140 244.25,-140 244.25,-109.5 0,-109.5"/>
<polygon fill="none" stroke="black" points="0,-109.5 0,-140 244.25,-140 244.25,-109.5 0,-109.5"/>
<text text-anchor="start" x="106.38" y="-120.7" font-family="Arial" font-weight="bold" font-size="14.00">read</text>
<polygon fill="none" stroke="black" points="0,-79 0,-109.5 244.25,-109.5 244.25,-79 0,-79"/>
<text text-anchor="start" x="7" y="-89.2" font-family="Arial" font-size="14.00">/etc/mapserver/data/raster/clipped.tif</text>
</a>
</g>
</g>
<!-- 1 -->
<g id="node2" class="node">
<title>1</title>
<g id="a_node2"><a xlink:href="https://gdal.org/en/latest/programs/gdal_raster_color_map.html" xlink:title="https://gdal.org/en/latest/programs/gdal_raster_color_map.html" target="_blank">
<polygon fill="#33a333" stroke="none" points="280.25,-109.5 280.25,-140 697.75,-140 697.75,-109.5 280.25,-109.5"/>
<polygon fill="none" stroke="black" points="280.25,-109.5 280.25,-140 697.75,-140 697.75,-109.5 280.25,-109.5"/>
<text text-anchor="start" x="453.75" y="-120.7" font-family="Arial" font-weight="bold" font-size="14.00">color&#45;map</text>
<polygon fill="none" stroke="black" points="280.25,-79 280.25,-109.5 697.75,-109.5 697.75,-79 280.25,-79"/>
<text text-anchor="start" x="287.25" y="-89.2" font-family="Arial" font-size="14.00">&#45;&#45;color&#45;map /etc/mapserver/data/raster/color&#45;map&#45;percentage.txt</text>
</a>
</g>
</g>
<!-- 0&#45;&gt;1 -->
<g id="edge1" class="edge">
<title>0&#45;&gt;1</title>
<path fill="none" stroke="black" d="M244.12,-109.5C252.34,-109.5 260.75,-109.5 269.27,-109.5"/>
<polygon fill="black" stroke="black" points="269.01,-113 279.01,-109.5 269.01,-106 269.01,-113"/>
</g>
<!-- 2 -->
<g id="node3" class="node">
<title>2</title>
<g id="a_node3"><a xlink:href="https://gdal.org/en/latest/programs/gdal_raster_blend.html" xlink:title="https://gdal.org/en/latest/programs/gdal_raster_blend.html" target="_blank">
<polygon fill="#33a333" stroke="none" points="733.75,-84.75 733.75,-115.25 873,-115.25 873,-84.75 733.75,-84.75"/>
<polygon fill="none" stroke="black" points="733.75,-84.75 733.75,-115.25 873,-115.25 873,-84.75 733.75,-84.75"/>
<text text-anchor="start" x="783.88" y="-95.95" font-family="Arial" font-weight="bold" font-size="14.00">blend</text>
<polygon fill="none" stroke="black" points="733.75,-54.25 733.75,-84.75 873,-84.75 873,-54.25 733.75,-54.25"/>
<text text-anchor="start" x="740.75" y="-64.45" font-family="Arial" font-size="14.00">&#45;&#45;operator hsv&#45;value</text>
<polygon fill="none" stroke="black" points="733.75,-23.75 733.75,-54.25 873,-54.25 873,-23.75 733.75,-23.75"/>
<text text-anchor="start" x="740.75" y="-33.95" font-family="Arial" font-size="14.00">&#45;&#45;overlay</text>
</a>
</g>
</g>
<!-- 1&#45;&gt;2 -->
<g id="edge2" class="edge">
<title>1&#45;&gt;2</title>
<path fill="none" stroke="black" d="M697.49,-82.93C706.05,-81.84 714.37,-80.77 722.34,-79.75"/>
<polygon fill="black" stroke="black" points="722.79,-83.22 732.26,-78.48 721.9,-76.28 722.79,-83.22"/>
</g>
<!-- 3 -->
<g id="node4" class="node">
<title>3</title>
<g id="a_node4"><a xlink:href="https://gdal.org/en/latest/programs/gdal_raster_read.html" xlink:title="https://gdal.org/en/latest/programs/gdal_raster_read.html" target="_blank">
<polygon fill="#33a333" stroke="none" points="0,-30.5 0,-61 244.25,-61 244.25,-30.5 0,-30.5"/>
<polygon fill="none" stroke="black" points="0,-30.5 0,-61 244.25,-61 244.25,-30.5 0,-30.5"/>
<text text-anchor="start" x="106.38" y="-41.7" font-family="Arial" font-weight="bold" font-size="14.00">read</text>
<polygon fill="none" stroke="black" points="0,0 0,-30.5 244.25,-30.5 244.25,0 0,0"/>
<text text-anchor="start" x="7" y="-10.2" font-family="Arial" font-size="14.00">/etc/mapserver/data/raster/clipped.tif</text>
</a>
</g>
</g>
<!-- 4 -->
<g id="node5" class="node">
<title>4</title>
<g id="a_node5"><a xlink:href="https://gdal.org/en/latest/programs/gdal_raster_hillshade.html" xlink:title="https://gdal.org/en/latest/programs/gdal_raster_hillshade.html" target="_blank">
<polygon fill="#33a333" stroke="none" points="450.5,-30.5 450.5,-61 527.5,-61 527.5,-30.5 450.5,-30.5"/>
<polygon fill="none" stroke="black" points="450.5,-30.5 450.5,-61 527.5,-61 527.5,-30.5 450.5,-30.5"/>
<text text-anchor="start" x="457.5" y="-41.7" font-family="Arial" font-weight="bold" font-size="14.00">hillshade</text>
<polygon fill="none" stroke="black" points="450.5,0 450.5,-30.5 527.5,-30.5 527.5,0 450.5,0"/>
<text text-anchor="start" x="457.5" y="-10.2" font-family="Arial" font-size="14.00">&#45;z 2</text>
</a>
</g>
</g>
<!-- 3&#45;&gt;4 -->
<g id="edge3" class="edge">
<title>3&#45;&gt;4</title>
<path fill="none" stroke="black" d="M244.12,-30.5C310.76,-30.5 389.78,-30.5 439.42,-30.5"/>
<polygon fill="black" stroke="black" points="439.25,-34 449.25,-30.5 439.25,-27 439.25,-34"/>
</g>
<!-- 4&#45;&gt;2 -->
<g id="edge4" class="edge">
<title>4&#45;&gt;2</title>
<path fill="none" stroke="black" d="M527.37,-35.17C575.42,-41.16 660.12,-51.74 722.87,-59.57"/>
<polygon fill="black" stroke="black" points="722.06,-63 732.42,-60.77 722.93,-56.05 722.06,-63"/>
</g>
</g>
</svg>
