<?xml version="1.0" encoding="UTF-8" standalone="no"?>
<!DOCTYPE svg PUBLIC "-//W3C//DTD SVG 1.1//EN"
 "http://www.w3.org/Graphics/SVG/1.1/DTD/svg11.dtd">
<!-- Generated by graphviz version 11.0.0 (20240428.1522)
 -->
<!-- Title: GDALG Workflow Pages: 1 -->
<svg width="370pt" height="164pt"
 viewBox="0.00 0.00 370.00 163.50" xmlns="http://www.w3.org/2000/svg" xmlns:xlink="http://www.w3.org/1999/xlink">
<g id="graph0" class="graph" transform="scale(1 1) rotate(0) translate(36 127.5)">
<title>GDALG Workflow</title>
<!-- 0 -->
<g id="node1" class="node">
<title>0</title>
<g id="a_node1"><a xlink:href="https://gdal.org/en/latest/programs/gdal_vector_read.html" xlink:title="https://gdal.org/en/latest/programs/gdal_vector_read.html" target="_blank">
<polygon fill="#33a333" stroke="none" points="0,-45.75 0,-76.25 137,-76.25 137,-45.75 0,-45.75"/>
<polygon fill="none" stroke="black" points="0,-45.75 0,-76.25 137,-76.25 137,-45.75 0,-45.75"/>
<text text-anchor="start" x="52.75" y="-56.95" font-family="Arial" font-weight="bold" font-size="14.00">read</text>
<polygon fill="none" stroke="black" points="0,-15.25 0,-45.75 137,-45.75 137,-15.25 0,-15.25"/>
<text text-anchor="start" x="7" y="-25.45" font-family="Arial" font-size="14.00">data/osm/roads.fgb</text>
</a>
</g>
</g>
<!-- 1 -->
<g id="node2" class="node">
<title>1</title>
<g id="a_node2"><a xlink:href="https://gdal.org/en/latest/programs/gdal_vector_geom.html" xlink:title="https://gdal.org/en/latest/programs/gdal_vector_geom.html" target="_blank">
<polygon fill="#33a333" stroke="none" points="173,-61 173,-91.5 298,-91.5 298,-61 173,-61"/>
<polygon fill="none" stroke="black" points="173,-61 173,-91.5 298,-91.5 298,-61 173,-61"/>
<text text-anchor="start" x="216" y="-72.2" font-family="Arial" font-weight="bold" font-size="14.00">geom</text>
<polygon fill="none" stroke="black" points="173,-30.5 173,-61 298,-61 298,-30.5 173,-30.5"/>
<text text-anchor="start" x="180" y="-40.7" font-family="Arial" font-size="14.00">buffer</text>
<polygon fill="none" stroke="black" points="173,0 173,-30.5 298,-30.5 298,0 173,0"/>
<text text-anchor="start" x="180" y="-10.2" font-family="Arial" font-size="14.00">&#45;&#45;distance 0.0001</text>
</a>
</g>
</g>
<!-- 0&#45;&gt;1 -->
<g id="edge1" class="edge">
<title>0&#45;&gt;1</title>
<path fill="none" stroke="black" d="M136.61,-45.75C144.89,-45.75 153.39,-45.75 161.75,-45.75"/>
<polygon fill="black" stroke="black" points="161.52,-49.25 171.52,-45.75 161.52,-42.25 161.52,-49.25"/>
</g>
</g>
</svg>
